<svg xmlns="http://www.w3.org/2000/svg" xmlns:xlink="http://www.w3.org/1999/xlink" width="1366" zoomAndPan="magnify" viewBox="0 0 1024.5 168.75" height="225" preserveAspectRatio="xMidYMid meet" version="1.0"><defs><g/><clipPath id="d723308fdf"><path d="M 5 0 L 1023.492188 0 L 1023.492188 168.5 L 5 168.5 Z M 5 0 " clip-rule="nonzero"/></clipPath><clipPath id="7e7e4dd0e5"><path d="M 350 0 L 397 0 L 397 130 L 350 130 Z M 350 0 " clip-rule="nonzero"/></clipPath><clipPath id="9d3e98c1e6"><path d="M 412 0 L 458 0 L 458 130 L 412 130 Z M 412 0 " clip-rule="nonzero"/></clipPath><clipPath id="da6eaaab7f"><path d="M 475 0 L 491 0 L 491 130 L 475 130 Z M 475 0 " clip-rule="nonzero"/></clipPath><clipPath id="51edc1f3aa"><path d="M 559 0 L 576 0 L 576 130 L 559 130 Z M 559 0 " clip-rule="nonzero"/></clipPath><clipPath id="61119fa7a6"><path d="M 899 0 L 916 0 L 916 130 L 899 130 Z M 899 0 " clip-rule="nonzero"/></clipPath><clipPath id="b520a3fa90"><rect x="0" width="1019" y="0" height="169"/></clipPath></defs><g clip-path="url(#d723308fdf)"><g transform="matrix(1, 0, 0, 1, 5, 0.000000000000007883)"><g clip-path="url(#b520a3fa90)"><g fill="#1a3c4c" fill-opacity="1"><g transform="translate(0.665463, 129.68764)"><g><path d="M 137.109375 -3.4375 C 137.109375 -2.632812 136.820312 -1.859375 136.25 -1.109375 C 135.675781 -0.367188 134.929688 0 134.015625 0 L 124.390625 0 C 123.585938 0 122.867188 -0.34375 122.234375 -1.03125 C 121.609375 -1.71875 121.296875 -2.519531 121.296875 -3.4375 L 121.296875 -78.515625 C 121.296875 -86.535156 120.691406 -92.976562 119.484375 -97.84375 C 118.285156 -102.71875 116.253906 -106.382812 113.390625 -108.84375 C 110.523438 -111.300781 106.601562 -112.929688 101.625 -113.734375 C 96.644531 -114.535156 90.375 -114.9375 82.8125 -114.9375 L 82.8125 -3.4375 C 82.8125 -2.632812 82.523438 -1.859375 81.953125 -1.109375 C 81.378906 -0.367188 80.632812 0 79.71875 0 L 70.265625 0 C 69.347656 0 68.601562 -0.34375 68.03125 -1.03125 C 67.457031 -1.71875 67.171875 -2.519531 67.171875 -3.4375 L 67.171875 -114.9375 C 59.617188 -114.9375 53.347656 -114.535156 48.359375 -113.734375 C 43.378906 -112.929688 39.457031 -111.300781 36.59375 -108.84375 C 33.726562 -106.382812 31.691406 -102.71875 30.484375 -97.84375 C 29.285156 -92.976562 28.6875 -86.535156 28.6875 -78.515625 L 28.6875 -3.4375 C 28.6875 -2.632812 28.398438 -1.859375 27.828125 -1.109375 C 27.253906 -0.367188 26.507812 0 25.59375 0 L 15.984375 0 C 15.179688 0 14.460938 -0.34375 13.828125 -1.03125 C 13.203125 -1.71875 12.890625 -2.519531 12.890625 -3.4375 L 12.890625 -78.515625 C 12.890625 -89.515625 14.0625 -98.363281 16.40625 -105.0625 C 18.757812 -111.757812 22.425781 -116.796875 27.40625 -120.171875 C 32.382812 -123.554688 38.828125 -125.847656 46.734375 -127.046875 C 54.640625 -128.253906 64.085938 -128.859375 75.078125 -128.859375 C 86.078125 -128.859375 95.523438 -128.253906 103.421875 -127.046875 C 111.328125 -125.847656 117.742188 -123.554688 122.671875 -120.171875 C 127.597656 -116.796875 131.234375 -111.757812 133.578125 -105.0625 C 135.929688 -98.363281 137.109375 -89.515625 137.109375 -78.515625 Z M 137.109375 -3.4375 "/></g></g></g><g fill="#1a3c4c" fill-opacity="1"><g transform="translate(150.635075, 129.68764)"><g><path d="M 84.015625 0 C 84.015625 8.9375 82.722656 15.863281 80.140625 20.78125 C 77.566406 25.707031 73.675781 29.144531 68.46875 31.09375 C 63.257812 33.039062 56.757812 34.015625 48.96875 34.015625 C 42.664062 34.015625 36.847656 33.640625 31.515625 32.890625 C 26.191406 32.148438 22.5625 31.550781 20.625 31.09375 C 18.445312 30.519531 17.359375 29.316406 17.359375 27.484375 L 17.359375 22.671875 C 17.359375 20.734375 18.390625 19.765625 20.453125 19.765625 C 20.566406 19.765625 20.648438 19.765625 20.703125 19.765625 C 20.765625 19.765625 20.851562 19.765625 20.96875 19.765625 C 22.675781 19.992188 25.101562 20.28125 28.25 20.625 C 31.40625 20.96875 34.816406 21.25 38.484375 21.46875 C 42.148438 21.695312 45.644531 21.8125 48.96875 21.8125 C 54.125 21.8125 58.1875 21.238281 61.15625 20.09375 C 64.132812 18.957031 66.222656 16.8125 67.421875 13.65625 C 68.628906 10.507812 69.234375 5.957031 69.234375 0 L 69.234375 -0.859375 C 67.859375 -0.515625 66.023438 -0.171875 63.734375 0.171875 C 61.453125 0.515625 59.078125 0.769531 56.609375 0.9375 C 54.148438 1.113281 52.003906 1.203125 50.171875 1.203125 C 45.242188 1.203125 40.488281 0.6875 35.90625 -0.34375 C 31.320312 -1.375 27.195312 -3.207031 23.53125 -5.84375 C 19.875 -8.476562 16.984375 -12.082031 14.859375 -16.65625 C 12.742188 -21.238281 11.6875 -27.140625 11.6875 -34.359375 L 11.6875 -91.0625 C 11.6875 -91.976562 12.03125 -92.78125 12.71875 -93.46875 C 13.40625 -94.15625 14.207031 -94.5 15.125 -94.5 L 23.359375 -94.5 C 24.273438 -94.5 25.078125 -94.15625 25.765625 -93.46875 C 26.453125 -92.78125 26.796875 -91.976562 26.796875 -91.0625 L 26.796875 -34.359375 C 26.796875 -28.285156 27.738281 -23.585938 29.625 -20.265625 C 31.519531 -16.953125 34.210938 -14.691406 37.703125 -13.484375 C 41.203125 -12.285156 45.359375 -11.6875 50.171875 -11.6875 C 52.691406 -11.6875 55.8125 -11.914062 59.53125 -12.375 C 63.25 -12.832031 66.367188 -13.347656 68.890625 -13.921875 L 68.890625 -91.0625 C 68.890625 -91.976562 69.234375 -92.78125 69.921875 -93.46875 C 70.609375 -94.15625 71.410156 -94.5 72.328125 -94.5 L 80.578125 -94.5 C 81.492188 -94.5 82.296875 -94.15625 82.984375 -93.46875 C 83.671875 -92.78125 84.015625 -91.976562 84.015625 -91.0625 Z M 84.015625 0 "/></g></g></g><g fill="#1a3c4c" fill-opacity="1"><g transform="translate(246.32019, 129.68764)"><g><path d="M 81.265625 -6.703125 C 81.265625 -5.554688 81.0625 -4.695312 80.65625 -4.125 C 80.257812 -3.550781 79.257812 -3.09375 77.65625 -2.75 C 73.070312 -1.601562 67.972656 -0.660156 62.359375 0.078125 C 56.753906 0.828125 51.316406 1.203125 46.046875 1.203125 C 33.210938 1.203125 23.757812 -2.660156 17.6875 -10.390625 C 11.625 -18.117188 8.59375 -28.398438 8.59375 -41.234375 L 8.59375 -53.265625 C 8.59375 -66.203125 11.625 -76.507812 17.6875 -84.1875 C 23.757812 -91.863281 33.210938 -95.703125 46.046875 -95.703125 C 51.203125 -95.703125 56.613281 -95.328125 62.28125 -94.578125 C 67.945312 -93.835938 73.070312 -92.894531 77.65625 -91.75 C 79.257812 -91.40625 80.257812 -90.972656 80.65625 -90.453125 C 81.0625 -89.941406 81.265625 -89.054688 81.265625 -87.796875 Z M 66.140625 -13.234375 L 66.140625 -81.265625 C 63.859375 -81.722656 60.851562 -82.125 57.125 -82.46875 C 53.40625 -82.8125 49.710938 -82.984375 46.046875 -82.984375 C 37.566406 -82.984375 31.722656 -80.316406 28.515625 -74.984375 C 25.304688 -69.660156 23.703125 -62.421875 23.703125 -53.265625 L 23.703125 -41.234375 C 23.703125 -32.179688 25.304688 -24.960938 28.515625 -19.578125 C 31.722656 -14.203125 37.566406 -11.515625 46.046875 -11.515625 C 49.710938 -11.515625 53.378906 -11.6875 57.046875 -12.03125 C 60.710938 -12.375 63.742188 -12.773438 66.140625 -13.234375 Z M 66.140625 -13.234375 "/></g></g></g><g clip-path="url(#7e7e4dd0e5)"><g fill="#1a3c4c" fill-opacity="1"><g transform="translate(339.256722, 129.68764)"><g><path d="M 57.046875 -120.609375 C 57.046875 -119.003906 55.84375 -118.203125 53.4375 -118.203125 L 38.140625 -118.203125 C 33.441406 -118.203125 30.375 -117.515625 28.9375 -116.140625 C 27.507812 -114.765625 26.796875 -111.5625 26.796875 -106.53125 L 26.796875 -94.5 L 53.609375 -94.5 C 55.785156 -94.5 56.875 -93.46875 56.875 -91.40625 L 56.875 -85.5625 C 56.875 -83.5 55.785156 -82.46875 53.609375 -82.46875 L 26.796875 -82.46875 L 26.796875 -3.4375 C 26.796875 -2.519531 26.453125 -1.71875 25.765625 -1.03125 C 25.078125 -0.34375 24.273438 0 23.359375 0 L 15.125 0 C 14.207031 0 13.40625 -0.34375 12.71875 -1.03125 C 12.03125 -1.71875 11.6875 -2.519531 11.6875 -3.4375 L 11.6875 -106.53125 C 11.6875 -115.6875 14.085938 -121.953125 18.890625 -125.328125 C 23.703125 -128.710938 30.117188 -130.40625 38.140625 -130.40625 C 41.234375 -130.40625 44.179688 -130.289062 46.984375 -130.0625 C 49.796875 -129.832031 52.003906 -129.601562 53.609375 -129.375 C 55.898438 -129.03125 57.046875 -128.054688 57.046875 -126.453125 Z M 57.046875 -120.609375 "/></g></g></g></g><g clip-path="url(#9d3e98c1e6)"><g fill="#1a3c4c" fill-opacity="1"><g transform="translate(400.584536, 129.68764)"><g><path d="M 57.046875 -120.609375 C 57.046875 -119.003906 55.84375 -118.203125 53.4375 -118.203125 L 38.140625 -118.203125 C 33.441406 -118.203125 30.375 -117.515625 28.9375 -116.140625 C 27.507812 -114.765625 26.796875 -111.5625 26.796875 -106.53125 L 26.796875 -94.5 L 53.609375 -94.5 C 55.785156 -94.5 56.875 -93.46875 56.875 -91.40625 L 56.875 -85.5625 C 56.875 -83.5 55.785156 -82.46875 53.609375 -82.46875 L 26.796875 -82.46875 L 26.796875 -3.4375 C 26.796875 -2.519531 26.453125 -1.71875 25.765625 -1.03125 C 25.078125 -0.34375 24.273438 0 23.359375 0 L 15.125 0 C 14.207031 0 13.40625 -0.34375 12.71875 -1.03125 C 12.03125 -1.71875 11.6875 -2.519531 11.6875 -3.4375 L 11.6875 -106.53125 C 11.6875 -115.6875 14.085938 -121.953125 18.890625 -125.328125 C 23.703125 -128.710938 30.117188 -130.40625 38.140625 -130.40625 C 41.234375 -130.40625 44.179688 -130.289062 46.984375 -130.0625 C 49.796875 -129.832031 52.003906 -129.601562 53.609375 -129.375 C 55.898438 -129.03125 57.046875 -128.054688 57.046875 -126.453125 Z M 57.046875 -120.609375 "/></g></g></g></g><g clip-path="url(#da6eaaab7f)"><g fill="#1a3c4c" fill-opacity="1"><g transform="translate(461.91235, 129.68764)"><g><path d="M 29.03125 -113.046875 C 29.03125 -112.128906 28.6875 -111.328125 28 -110.640625 C 27.3125 -109.953125 26.507812 -109.609375 25.59375 -109.609375 L 16.84375 -109.609375 C 15.925781 -109.609375 15.125 -109.953125 14.4375 -110.640625 C 13.75 -111.328125 13.40625 -112.128906 13.40625 -113.046875 L 13.40625 -126.796875 C 13.40625 -127.710938 13.75 -128.515625 14.4375 -129.203125 C 15.125 -129.890625 15.925781 -130.234375 16.84375 -130.234375 L 25.59375 -130.234375 C 26.507812 -130.234375 27.3125 -129.890625 28 -129.203125 C 28.6875 -128.515625 29.03125 -127.710938 29.03125 -126.796875 Z M 28.6875 -3.4375 C 28.6875 -2.519531 28.34375 -1.71875 27.65625 -1.03125 C 26.96875 -0.34375 26.164062 0 25.25 0 L 17.015625 0 C 16.097656 0 15.296875 -0.34375 14.609375 -1.03125 C 13.921875 -1.71875 13.578125 -2.519531 13.578125 -3.4375 L 13.578125 -91.0625 C 13.578125 -91.976562 13.921875 -92.78125 14.609375 -93.46875 C 15.296875 -94.15625 16.097656 -94.5 17.015625 -94.5 L 25.25 -94.5 C 26.164062 -94.5 26.96875 -94.15625 27.65625 -93.46875 C 28.34375 -92.78125 28.6875 -91.976562 28.6875 -91.0625 Z M 28.6875 -3.4375 "/></g></g></g></g><g fill="#1a3c4c" fill-opacity="1"><g transform="translate(504.343627, 129.68764)"><g><path d="M 28.515625 -3.4375 C 28.515625 -2.632812 28.226562 -1.859375 27.65625 -1.109375 C 27.082031 -0.367188 26.335938 0 25.421875 0 L 16.5 0 C 15.695312 0 14.976562 -0.34375 14.34375 -1.03125 C 13.71875 -1.71875 13.40625 -2.519531 13.40625 -3.4375 L 13.40625 -125.9375 C 13.40625 -126.851562 13.691406 -127.625 14.265625 -128.25 C 14.835938 -128.882812 15.582031 -129.203125 16.5 -129.203125 L 25.421875 -129.203125 C 27.484375 -129.203125 28.515625 -128.113281 28.515625 -125.9375 Z M 28.515625 -3.4375 "/></g></g></g><g clip-path="url(#51edc1f3aa)"><g fill="#1a3c4c" fill-opacity="1"><g transform="translate(546.259576, 129.68764)"><g><path d="M 29.03125 -113.046875 C 29.03125 -112.128906 28.6875 -111.328125 28 -110.640625 C 27.3125 -109.953125 26.507812 -109.609375 25.59375 -109.609375 L 16.84375 -109.609375 C 15.925781 -109.609375 15.125 -109.953125 14.4375 -110.640625 C 13.75 -111.328125 13.40625 -112.128906 13.40625 -113.046875 L 13.40625 -126.796875 C 13.40625 -127.710938 13.75 -128.515625 14.4375 -129.203125 C 15.125 -129.890625 15.925781 -130.234375 16.84375 -130.234375 L 25.59375 -130.234375 C 26.507812 -130.234375 27.3125 -129.890625 28 -129.203125 C 28.6875 -128.515625 29.03125 -127.710938 29.03125 -126.796875 Z M 28.6875 -3.4375 C 28.6875 -2.519531 28.34375 -1.71875 27.65625 -1.03125 C 26.96875 -0.34375 26.164062 0 25.25 0 L 17.015625 0 C 16.097656 0 15.296875 -0.34375 14.609375 -1.03125 C 13.921875 -1.71875 13.578125 -2.519531 13.578125 -3.4375 L 13.578125 -91.0625 C 13.578125 -91.976562 13.921875 -92.78125 14.609375 -93.46875 C 15.296875 -94.15625 16.097656 -94.5 17.015625 -94.5 L 25.25 -94.5 C 26.164062 -94.5 26.96875 -94.15625 27.65625 -93.46875 C 28.34375 -92.78125 28.6875 -91.976562 28.6875 -91.0625 Z M 28.6875 -3.4375 "/></g></g></g></g><g fill="#1a3c4c" fill-opacity="1"><g transform="translate(588.690853, 129.68764)"><g><path d="M 84.015625 -3.4375 C 84.015625 -2.519531 83.726562 -1.71875 83.15625 -1.03125 C 82.582031 -0.34375 81.835938 0 80.921875 0 L 71.984375 0 C 71.066406 0 70.320312 -0.34375 69.75 -1.03125 C 69.175781 -1.71875 68.890625 -2.519531 68.890625 -3.4375 L 68.890625 -64.765625 C 68.890625 -71.179688 67.859375 -75.765625 65.796875 -78.515625 C 63.742188 -81.265625 59.796875 -82.640625 53.953125 -82.640625 L 41.75 -82.640625 C 35.90625 -82.640625 31.953125 -81.265625 29.890625 -78.515625 C 27.828125 -75.765625 26.796875 -71.179688 26.796875 -64.765625 L 26.796875 -3.4375 C 26.796875 -2.519531 26.507812 -1.71875 25.9375 -1.03125 C 25.363281 -0.34375 24.617188 0 23.703125 0 L 14.78125 0 C 13.863281 0 13.117188 -0.34375 12.546875 -1.03125 C 11.972656 -1.71875 11.6875 -2.519531 11.6875 -3.4375 L 11.6875 -64.765625 C 11.6875 -71.410156 12.6875 -76.765625 14.6875 -80.828125 C 16.695312 -84.898438 19.242188 -88.023438 22.328125 -90.203125 C 25.421875 -92.378906 28.710938 -93.835938 32.203125 -94.578125 C 35.703125 -95.328125 38.882812 -95.703125 41.75 -95.703125 L 53.953125 -95.703125 C 56.929688 -95.703125 60.132812 -95.328125 63.5625 -94.578125 C 67 -93.835938 70.265625 -92.378906 73.359375 -90.203125 C 76.453125 -88.023438 79 -84.898438 81 -80.828125 C 83.007812 -76.765625 84.015625 -71.410156 84.015625 -64.765625 Z M 84.015625 -3.4375 "/></g></g></g><g fill="#1a3c4c" fill-opacity="1"><g transform="translate(684.375968, 129.68764)"><g><path d="M 79.203125 -2.234375 C 79.203125 -0.742188 78.570312 0 77.3125 0 L 64.9375 0 C 63.457031 0 62.144531 -0.742188 61 -2.234375 L 26.796875 -44.5 L 26.796875 -3.4375 C 26.796875 -2.519531 26.453125 -1.71875 25.765625 -1.03125 C 25.078125 -0.34375 24.273438 0 23.359375 0 L 15.125 0 C 14.207031 0 13.40625 -0.34375 12.71875 -1.03125 C 12.03125 -1.71875 11.6875 -2.519531 11.6875 -3.4375 L 11.6875 -125.765625 C 11.6875 -126.679688 12.03125 -127.484375 12.71875 -128.171875 C 13.40625 -128.859375 14.207031 -129.203125 15.125 -129.203125 L 23.359375 -129.203125 C 24.273438 -129.203125 25.078125 -128.859375 25.765625 -128.171875 C 26.453125 -127.484375 26.796875 -126.679688 26.796875 -125.765625 L 26.796875 -54.296875 L 61.171875 -92.953125 C 62.085938 -93.984375 63.226562 -94.5 64.59375 -94.5 L 76.625 -94.5 C 78.34375 -94.5 79.203125 -93.867188 79.203125 -92.609375 C 79.203125 -91.921875 78.914062 -91.289062 78.34375 -90.71875 L 40.546875 -49.828125 L 78.6875 -3.78125 C 79.03125 -3.4375 79.203125 -2.921875 79.203125 -2.234375 Z M 79.203125 -2.234375 "/></g></g></g><g fill="#1a3c4c" fill-opacity="1"><g transform="translate(769.582075, 129.68764)"><g><path d="M 71.46875 -23.703125 C 71.46875 -15.003906 68.519531 -8.675781 62.625 -4.71875 C 56.726562 -0.769531 48.96875 1.203125 39.34375 1.203125 C 37.28125 1.203125 34.644531 1.113281 31.4375 0.9375 C 28.226562 0.769531 24.9375 0.515625 21.5625 0.171875 C 18.1875 -0.171875 15.066406 -0.6875 12.203125 -1.375 C 9.796875 -1.945312 8.59375 -3.09375 8.59375 -4.8125 L 8.59375 -10.828125 C 8.59375 -12.546875 9.625 -13.40625 11.6875 -13.40625 C 11.914062 -13.40625 12.054688 -13.40625 12.109375 -13.40625 C 12.171875 -13.40625 12.257812 -13.40625 12.375 -13.40625 C 15.125 -13.0625 18.210938 -12.742188 21.640625 -12.453125 C 25.078125 -12.171875 28.367188 -11.941406 31.515625 -11.765625 C 34.671875 -11.597656 37.28125 -11.515625 39.34375 -11.515625 C 44.957031 -11.515625 49.195312 -12.398438 52.0625 -14.171875 C 54.925781 -15.953125 56.359375 -19.128906 56.359375 -23.703125 C 56.359375 -26.335938 55.441406 -28.65625 53.609375 -30.65625 C 51.773438 -32.664062 48.394531 -35.101562 43.46875 -37.96875 L 26.109375 -48.28125 C 20.847656 -51.488281 16.613281 -55.035156 13.40625 -58.921875 C 10.195312 -62.816406 8.59375 -67.457031 8.59375 -72.84375 C 8.59375 -78.800781 9.96875 -83.441406 12.71875 -86.765625 C 15.46875 -90.085938 19.1875 -92.40625 23.875 -93.71875 C 28.570312 -95.039062 33.84375 -95.703125 39.6875 -95.703125 C 44.5 -95.703125 49.164062 -95.5 53.6875 -95.09375 C 58.21875 -94.695312 62.484375 -94.15625 66.484375 -93.46875 C 68.660156 -93.125 69.75 -91.976562 69.75 -90.03125 L 69.75 -84.359375 C 69.75 -82.410156 68.773438 -81.4375 66.828125 -81.4375 C 66.710938 -81.4375 66.625 -81.4375 66.5625 -81.4375 C 66.507812 -81.4375 66.425781 -81.4375 66.3125 -81.4375 C 63.34375 -81.664062 59.363281 -81.953125 54.375 -82.296875 C 49.394531 -82.640625 44.5 -82.8125 39.6875 -82.8125 C 34.875 -82.8125 31.003906 -82.238281 28.078125 -81.09375 C 25.160156 -79.945312 23.703125 -77.195312 23.703125 -72.84375 C 23.703125 -70.320312 24.703125 -68.085938 26.703125 -66.140625 C 28.710938 -64.203125 31.664062 -62.085938 35.5625 -59.796875 L 52.578125 -49.65625 C 59.679688 -45.414062 64.601562 -41.289062 67.34375 -37.28125 C 70.09375 -33.269531 71.46875 -28.742188 71.46875 -23.703125 Z M 71.46875 -23.703125 "/></g></g></g><g fill="#1a3c4c" fill-opacity="1"><g transform="translate(849.634567, 129.68764)"><g><path d="M 25.765625 -3.609375 C 25.765625 -2.691406 25.445312 -1.890625 24.8125 -1.203125 C 24.1875 -0.515625 23.414062 -0.171875 22.5 -0.171875 L 14.265625 -0.171875 C 13.460938 -0.171875 12.71875 -0.515625 12.03125 -1.203125 C 11.34375 -1.890625 11 -2.691406 11 -3.609375 L 11 -19.59375 C 11 -20.507812 11.3125 -21.28125 11.9375 -21.90625 C 12.570312 -22.53125 13.347656 -22.84375 14.265625 -22.84375 L 22.5 -22.84375 C 23.414062 -22.84375 24.1875 -22.53125 24.8125 -21.90625 C 25.445312 -21.28125 25.765625 -20.507812 25.765625 -19.59375 Z M 25.765625 -3.609375 "/></g></g></g><g clip-path="url(#61119fa7a6)"><g fill="#1a3c4c" fill-opacity="1"><g transform="translate(886.3969, 129.68764)"><g><path d="M 29.03125 -113.046875 C 29.03125 -112.128906 28.6875 -111.328125 28 -110.640625 C 27.3125 -109.953125 26.507812 -109.609375 25.59375 -109.609375 L 16.84375 -109.609375 C 15.925781 -109.609375 15.125 -109.953125 14.4375 -110.640625 C 13.75 -111.328125 13.40625 -112.128906 13.40625 -113.046875 L 13.40625 -126.796875 C 13.40625 -127.710938 13.75 -128.515625 14.4375 -129.203125 C 15.125 -129.890625 15.925781 -130.234375 16.84375 -130.234375 L 25.59375 -130.234375 C 26.507812 -130.234375 27.3125 -129.890625 28 -129.203125 C 28.6875 -128.515625 29.03125 -127.710938 29.03125 -126.796875 Z M 28.6875 -3.4375 C 28.6875 -2.519531 28.34375 -1.71875 27.65625 -1.03125 C 26.96875 -0.34375 26.164062 0 25.25 0 L 17.015625 0 C 16.097656 0 15.296875 -0.34375 14.609375 -1.03125 C 13.921875 -1.71875 13.578125 -2.519531 13.578125 -3.4375 L 13.578125 -91.0625 C 13.578125 -91.976562 13.921875 -92.78125 14.609375 -93.46875 C 15.296875 -94.15625 16.097656 -94.5 17.015625 -94.5 L 25.25 -94.5 C 26.164062 -94.5 26.96875 -94.15625 27.65625 -93.46875 C 28.34375 -92.78125 28.6875 -91.976562 28.6875 -91.0625 Z M 28.6875 -3.4375 "/></g></g></g></g><g fill="#1a3c4c" fill-opacity="1"><g transform="translate(928.828177, 129.68764)"><g><path d="M 85.046875 -40.71875 C 85.046875 -28.113281 81.804688 -17.972656 75.328125 -10.296875 C 68.859375 -2.628906 59.328125 1.203125 46.734375 1.203125 C 34.128906 1.203125 24.617188 -2.628906 18.203125 -10.296875 C 11.796875 -17.972656 8.59375 -28.113281 8.59375 -40.71875 L 8.59375 -53.78125 C 8.59375 -66.375 11.796875 -76.507812 18.203125 -84.1875 C 24.617188 -91.863281 34.128906 -95.703125 46.734375 -95.703125 C 59.328125 -95.703125 68.859375 -91.863281 75.328125 -84.1875 C 81.804688 -76.507812 85.046875 -66.375 85.046875 -53.78125 Z M 69.921875 -40.71875 L 69.921875 -53.78125 C 69.921875 -62.59375 68.085938 -69.578125 64.421875 -74.734375 C 60.765625 -79.890625 54.867188 -82.46875 46.734375 -82.46875 C 38.710938 -82.46875 32.867188 -79.890625 29.203125 -74.734375 C 25.535156 -69.578125 23.703125 -62.59375 23.703125 -53.78125 L 23.703125 -40.71875 C 23.703125 -32.007812 25.535156 -25.050781 29.203125 -19.84375 C 32.867188 -14.632812 38.710938 -12.03125 46.734375 -12.03125 C 54.753906 -12.03125 60.625 -14.601562 64.34375 -19.75 C 68.0625 -24.90625 69.921875 -31.894531 69.921875 -40.71875 Z M 69.921875 -40.71875 "/></g></g></g></g></g></g></svg>