<svg xmlns="http://www.w3.org/2000/svg" xmlns:xlink="http://www.w3.org/1999/xlink" width="1366" zoomAndPan="magnify" viewBox="0 0 1024.5 168.75" height="225" preserveAspectRatio="xMidYMid meet" version="1.0"><defs><g/><clipPath id="ab81cb10d9"><path d="M 0.507812 0 L 1023.492188 0 L 1023.492188 168.5 L 0.507812 168.5 Z M 0.507812 0 " clip-rule="nonzero"/></clipPath><clipPath id="d8838f88d8"><path d="M 346 0 L 393 0 L 393 132 L 346 132 Z M 346 0 " clip-rule="nonzero"/></clipPath><clipPath id="f5eb98abf8"><path d="M 409 0 L 456 0 L 456 132 L 409 132 Z M 409 0 " clip-rule="nonzero"/></clipPath><clipPath id="fa49470710"><path d="M 473 0 L 490 0 L 490 132 L 473 132 Z M 473 0 " clip-rule="nonzero"/></clipPath><clipPath id="8c36544cd1"><path d="M 516 0 L 533 0 L 533 132 L 516 132 Z M 516 0 " clip-rule="nonzero"/></clipPath><clipPath id="d9ccb39a5d"><path d="M 559 0 L 576 0 L 576 132 L 559 132 Z M 559 0 " clip-rule="nonzero"/></clipPath><clipPath id="c8f8fbeada"><path d="M 698 0 L 768 0 L 768 132 L 698 132 Z M 698 0 " clip-rule="nonzero"/></clipPath><clipPath id="3d60b35faf"><path d="M 906 0 L 923 0 L 923 132 L 906 132 Z M 906 0 " clip-rule="nonzero"/></clipPath><clipPath id="259b3aefb6"><rect x="0" width="1024" y="0" height="169"/></clipPath></defs><g clip-path="url(#ab81cb10d9)"><g transform="matrix(1, 0, 0, 1, 0, 0.000000000000007883)"><g clip-path="url(#259b3aefb6)"><g fill="#d96a42" fill-opacity="1"><g transform="translate(-10.875514, 131.755085)"><g><path d="M 139.90625 -3.5 C 139.90625 -2.6875 139.609375 -1.898438 139.015625 -1.140625 C 138.429688 -0.378906 137.675781 0 136.75 0 L 126.921875 0 C 126.109375 0 125.378906 -0.347656 124.734375 -1.046875 C 124.085938 -1.753906 123.765625 -2.570312 123.765625 -3.5 L 123.765625 -80.125 C 123.765625 -88.300781 123.148438 -94.875 121.921875 -99.84375 C 120.703125 -104.8125 118.628906 -108.550781 115.703125 -111.0625 C 112.785156 -113.570312 108.785156 -115.234375 103.703125 -116.046875 C 98.617188 -116.867188 92.21875 -117.28125 84.5 -117.28125 L 84.5 -3.5 C 84.5 -2.6875 84.207031 -1.898438 83.625 -1.140625 C 83.039062 -0.378906 82.28125 0 81.34375 0 L 71.703125 0 C 70.765625 0 70.003906 -0.347656 69.421875 -1.046875 C 68.835938 -1.753906 68.546875 -2.570312 68.546875 -3.5 L 68.546875 -117.28125 C 60.835938 -117.28125 54.4375 -116.867188 49.34375 -116.046875 C 44.257812 -115.234375 40.253906 -113.570312 37.328125 -111.0625 C 34.410156 -108.550781 32.335938 -104.8125 31.109375 -99.84375 C 29.890625 -94.875 29.28125 -88.300781 29.28125 -80.125 L 29.28125 -3.5 C 29.28125 -2.6875 28.988281 -1.898438 28.40625 -1.140625 C 27.820312 -0.378906 27.0625 0 26.125 0 L 16.296875 0 C 15.484375 0 14.753906 -0.347656 14.109375 -1.046875 C 13.472656 -1.753906 13.15625 -2.570312 13.15625 -3.5 L 13.15625 -80.125 C 13.15625 -91.34375 14.351562 -100.367188 16.75 -107.203125 C 19.144531 -114.035156 22.882812 -119.175781 27.96875 -122.625 C 33.050781 -126.070312 39.625 -128.410156 47.6875 -129.640625 C 55.75 -130.867188 65.390625 -131.484375 76.609375 -131.484375 C 87.828125 -131.484375 97.46875 -130.867188 105.53125 -129.640625 C 113.601562 -128.410156 120.148438 -126.070312 125.171875 -122.625 C 130.203125 -119.175781 133.914062 -114.035156 136.3125 -107.203125 C 138.707031 -100.367188 139.90625 -91.34375 139.90625 -80.125 Z M 139.90625 -3.5 "/></g></g></g><g fill="#d96a42" fill-opacity="1"><g transform="translate(142.150395, 131.755085)"><g><path d="M 85.734375 0 C 85.734375 9.113281 84.414062 16.179688 81.78125 21.203125 C 79.15625 26.234375 75.179688 29.742188 69.859375 31.734375 C 64.546875 33.722656 57.914062 34.71875 49.96875 34.71875 C 43.539062 34.71875 37.609375 34.335938 32.171875 33.578125 C 26.734375 32.816406 23.019531 32.203125 21.03125 31.734375 C 18.8125 31.148438 17.703125 29.921875 17.703125 28.046875 L 17.703125 23.140625 C 17.703125 21.148438 18.753906 20.15625 20.859375 20.15625 C 20.972656 20.15625 21.0625 20.15625 21.125 20.15625 C 21.1875 20.15625 21.273438 20.15625 21.390625 20.15625 C 23.140625 20.394531 25.617188 20.6875 28.828125 21.03125 C 32.046875 21.382812 35.523438 21.675781 39.265625 21.90625 C 43.003906 22.144531 46.570312 22.265625 49.96875 22.265625 C 55.226562 22.265625 59.375 21.679688 62.40625 20.515625 C 65.445312 19.347656 67.582031 17.15625 68.8125 13.9375 C 70.039062 10.71875 70.65625 6.070312 70.65625 0 L 70.65625 -0.875 C 69.25 -0.519531 67.375 -0.171875 65.03125 0.171875 C 62.695312 0.523438 60.273438 0.789062 57.765625 0.96875 C 55.253906 1.144531 53.0625 1.234375 51.1875 1.234375 C 46.164062 1.234375 41.316406 0.707031 36.640625 -0.34375 C 31.960938 -1.394531 27.753906 -3.265625 24.015625 -5.953125 C 20.273438 -8.648438 17.320312 -12.332031 15.15625 -17 C 13 -21.675781 11.921875 -27.695312 11.921875 -35.0625 L 11.921875 -92.921875 C 11.921875 -93.847656 12.269531 -94.660156 12.96875 -95.359375 C 13.675781 -96.066406 14.492188 -96.421875 15.421875 -96.421875 L 23.84375 -96.421875 C 24.78125 -96.421875 25.597656 -96.066406 26.296875 -95.359375 C 26.992188 -94.660156 27.34375 -93.847656 27.34375 -92.921875 L 27.34375 -35.0625 C 27.34375 -28.863281 28.304688 -24.070312 30.234375 -20.6875 C 32.171875 -17.300781 34.921875 -14.992188 38.484375 -13.765625 C 42.046875 -12.535156 46.28125 -11.921875 51.1875 -11.921875 C 53.757812 -11.921875 56.941406 -12.15625 60.734375 -12.625 C 64.535156 -13.09375 67.722656 -13.617188 70.296875 -14.203125 L 70.296875 -92.921875 C 70.296875 -93.847656 70.644531 -94.660156 71.34375 -95.359375 C 72.050781 -96.066406 72.875 -96.421875 73.8125 -96.421875 L 82.21875 -96.421875 C 83.15625 -96.421875 83.972656 -96.066406 84.671875 -95.359375 C 85.378906 -94.660156 85.734375 -93.847656 85.734375 -92.921875 Z M 85.734375 0 "/></g></g></g><g fill="#d96a42" fill-opacity="1"><g transform="translate(239.785518, 131.755085)"><g><path d="M 82.921875 -6.84375 C 82.921875 -5.664062 82.71875 -4.785156 82.3125 -4.203125 C 81.90625 -3.617188 80.878906 -3.15625 79.234375 -2.8125 C 74.566406 -1.632812 69.367188 -0.664062 63.640625 0.09375 C 57.910156 0.851562 52.359375 1.234375 46.984375 1.234375 C 33.890625 1.234375 24.242188 -2.707031 18.046875 -10.59375 C 11.859375 -18.488281 8.765625 -28.984375 8.765625 -42.078125 L 8.765625 -54.34375 C 8.765625 -67.550781 11.859375 -78.070312 18.046875 -85.90625 C 24.242188 -93.738281 33.890625 -97.65625 46.984375 -97.65625 C 52.242188 -97.65625 57.765625 -97.273438 63.546875 -96.515625 C 69.335938 -95.753906 74.566406 -94.785156 79.234375 -93.609375 C 80.878906 -93.265625 81.90625 -92.828125 82.3125 -92.296875 C 82.71875 -91.773438 82.921875 -90.867188 82.921875 -89.578125 Z M 67.5 -13.5 L 67.5 -82.921875 C 65.15625 -83.390625 62.082031 -83.796875 58.28125 -84.140625 C 54.488281 -84.492188 50.722656 -84.671875 46.984375 -84.671875 C 38.335938 -84.671875 32.375 -81.953125 29.09375 -76.515625 C 25.820312 -71.085938 24.1875 -63.695312 24.1875 -54.34375 L 24.1875 -42.078125 C 24.1875 -32.835938 25.820312 -25.472656 29.09375 -19.984375 C 32.375 -14.492188 38.335938 -11.75 46.984375 -11.75 C 50.722656 -11.75 54.460938 -11.921875 58.203125 -12.265625 C 61.941406 -12.617188 65.039062 -13.03125 67.5 -13.5 Z M 67.5 -13.5 "/></g></g></g><g clip-path="url(#d8838f88d8)"><g fill="#d96a42" fill-opacity="1"><g transform="translate(334.616045, 131.755085)"><g><path d="M 58.203125 -123.0625 C 58.203125 -121.425781 56.972656 -120.609375 54.515625 -120.609375 L 38.921875 -120.609375 C 34.128906 -120.609375 31 -119.90625 29.53125 -118.5 C 28.070312 -117.101562 27.34375 -113.832031 27.34375 -108.6875 L 27.34375 -96.421875 L 54.703125 -96.421875 C 56.921875 -96.421875 58.03125 -95.367188 58.03125 -93.265625 L 58.03125 -87.3125 C 58.03125 -85.207031 56.921875 -84.15625 54.703125 -84.15625 L 27.34375 -84.15625 L 27.34375 -3.5 C 27.34375 -2.570312 26.992188 -1.753906 26.296875 -1.046875 C 25.597656 -0.347656 24.78125 0 23.84375 0 L 15.421875 0 C 14.492188 0 13.675781 -0.347656 12.96875 -1.046875 C 12.269531 -1.753906 11.921875 -2.570312 11.921875 -3.5 L 11.921875 -108.6875 C 11.921875 -118.039062 14.375 -124.441406 19.28125 -127.890625 C 24.1875 -131.335938 30.734375 -133.0625 38.921875 -133.0625 C 42.078125 -133.0625 45.085938 -132.941406 47.953125 -132.703125 C 50.816406 -132.472656 53.066406 -132.242188 54.703125 -132.015625 C 57.035156 -131.660156 58.203125 -130.664062 58.203125 -129.03125 Z M 58.203125 -123.0625 "/></g></g></g></g><g clip-path="url(#f5eb98abf8)"><g fill="#d96a42" fill-opacity="1"><g transform="translate(397.193685, 131.755085)"><g><path d="M 58.203125 -123.0625 C 58.203125 -121.425781 56.972656 -120.609375 54.515625 -120.609375 L 38.921875 -120.609375 C 34.128906 -120.609375 31 -119.90625 29.53125 -118.5 C 28.070312 -117.101562 27.34375 -113.832031 27.34375 -108.6875 L 27.34375 -96.421875 L 54.703125 -96.421875 C 56.921875 -96.421875 58.03125 -95.367188 58.03125 -93.265625 L 58.03125 -87.3125 C 58.03125 -85.207031 56.921875 -84.15625 54.703125 -84.15625 L 27.34375 -84.15625 L 27.34375 -3.5 C 27.34375 -2.570312 26.992188 -1.753906 26.296875 -1.046875 C 25.597656 -0.347656 24.78125 0 23.84375 0 L 15.421875 0 C 14.492188 0 13.675781 -0.347656 12.96875 -1.046875 C 12.269531 -1.753906 11.921875 -2.570312 11.921875 -3.5 L 11.921875 -108.6875 C 11.921875 -118.039062 14.375 -124.441406 19.28125 -127.890625 C 24.1875 -131.335938 30.734375 -133.0625 38.921875 -133.0625 C 42.078125 -133.0625 45.085938 -132.941406 47.953125 -132.703125 C 50.816406 -132.472656 53.066406 -132.242188 54.703125 -132.015625 C 57.035156 -131.660156 58.203125 -130.664062 58.203125 -129.03125 Z M 58.203125 -123.0625 "/></g></g></g></g><g clip-path="url(#fa49470710)"><g fill="#d96a42" fill-opacity="1"><g transform="translate(459.771325, 131.755085)"><g><path d="M 29.625 -115.359375 C 29.625 -114.421875 29.273438 -113.597656 28.578125 -112.890625 C 27.878906 -112.191406 27.0625 -111.84375 26.125 -111.84375 L 17.1875 -111.84375 C 16.25 -111.84375 15.425781 -112.191406 14.71875 -112.890625 C 14.019531 -113.597656 13.671875 -114.421875 13.671875 -115.359375 L 13.671875 -129.375 C 13.671875 -130.3125 14.019531 -131.128906 14.71875 -131.828125 C 15.425781 -132.535156 16.25 -132.890625 17.1875 -132.890625 L 26.125 -132.890625 C 27.0625 -132.890625 27.878906 -132.535156 28.578125 -131.828125 C 29.273438 -131.128906 29.625 -130.3125 29.625 -129.375 Z M 29.28125 -3.5 C 29.28125 -2.570312 28.925781 -1.753906 28.21875 -1.046875 C 27.519531 -0.347656 26.703125 0 25.765625 0 L 17.359375 0 C 16.421875 0 15.597656 -0.347656 14.890625 -1.046875 C 14.191406 -1.753906 13.84375 -2.570312 13.84375 -3.5 L 13.84375 -92.921875 C 13.84375 -93.847656 14.191406 -94.660156 14.890625 -95.359375 C 15.597656 -96.066406 16.421875 -96.421875 17.359375 -96.421875 L 25.765625 -96.421875 C 26.703125 -96.421875 27.519531 -96.066406 28.21875 -95.359375 C 28.925781 -94.660156 29.28125 -93.847656 29.28125 -92.921875 Z M 29.28125 -3.5 "/></g></g></g></g><g clip-path="url(#8c36544cd1)"><g fill="#d96a42" fill-opacity="1"><g transform="translate(503.067328, 131.755085)"><g><path d="M 29.109375 -3.5 C 29.109375 -2.6875 28.8125 -1.898438 28.21875 -1.140625 C 27.632812 -0.378906 26.878906 0 25.953125 0 L 16.828125 0 C 16.015625 0 15.285156 -0.347656 14.640625 -1.046875 C 13.992188 -1.753906 13.671875 -2.570312 13.671875 -3.5 L 13.671875 -128.5 C 13.671875 -129.4375 13.960938 -130.222656 14.546875 -130.859375 C 15.128906 -131.503906 15.890625 -131.828125 16.828125 -131.828125 L 25.953125 -131.828125 C 28.054688 -131.828125 29.109375 -130.71875 29.109375 -128.5 Z M 29.109375 -3.5 "/></g></g></g></g><g clip-path="url(#d9ccb39a5d)"><g fill="#d96a42" fill-opacity="1"><g transform="translate(545.8375, 131.755085)"><g><path d="M 29.625 -115.359375 C 29.625 -114.421875 29.273438 -113.597656 28.578125 -112.890625 C 27.878906 -112.191406 27.0625 -111.84375 26.125 -111.84375 L 17.1875 -111.84375 C 16.25 -111.84375 15.425781 -112.191406 14.71875 -112.890625 C 14.019531 -113.597656 13.671875 -114.421875 13.671875 -115.359375 L 13.671875 -129.375 C 13.671875 -130.3125 14.019531 -131.128906 14.71875 -131.828125 C 15.425781 -132.535156 16.25 -132.890625 17.1875 -132.890625 L 26.125 -132.890625 C 27.0625 -132.890625 27.878906 -132.535156 28.578125 -131.828125 C 29.273438 -131.128906 29.625 -130.3125 29.625 -129.375 Z M 29.28125 -3.5 C 29.28125 -2.570312 28.925781 -1.753906 28.21875 -1.046875 C 27.519531 -0.347656 26.703125 0 25.765625 0 L 17.359375 0 C 16.421875 0 15.597656 -0.347656 14.890625 -1.046875 C 14.191406 -1.753906 13.84375 -2.570312 13.84375 -3.5 L 13.84375 -92.921875 C 13.84375 -93.847656 14.191406 -94.660156 14.890625 -95.359375 C 15.597656 -96.066406 16.421875 -96.421875 17.359375 -96.421875 L 25.765625 -96.421875 C 26.703125 -96.421875 27.519531 -96.066406 28.21875 -95.359375 C 28.925781 -94.660156 29.28125 -93.847656 29.28125 -92.921875 Z M 29.28125 -3.5 "/></g></g></g></g><g fill="#d96a42" fill-opacity="1"><g transform="translate(589.133503, 131.755085)"><g><path d="M 85.734375 -3.5 C 85.734375 -2.570312 85.4375 -1.753906 84.84375 -1.046875 C 84.257812 -0.347656 83.503906 0 82.578125 0 L 73.453125 0 C 72.515625 0 71.753906 -0.347656 71.171875 -1.046875 C 70.585938 -1.753906 70.296875 -2.570312 70.296875 -3.5 L 70.296875 -66.09375 C 70.296875 -72.632812 69.242188 -77.304688 67.140625 -80.109375 C 65.035156 -82.921875 61.003906 -84.328125 55.046875 -84.328125 L 42.59375 -84.328125 C 36.632812 -84.328125 32.601562 -82.921875 30.5 -80.109375 C 28.394531 -77.304688 27.34375 -72.632812 27.34375 -66.09375 L 27.34375 -3.5 C 27.34375 -2.570312 27.050781 -1.753906 26.46875 -1.046875 C 25.882812 -0.347656 25.125 0 24.1875 0 L 15.078125 0 C 14.140625 0 13.378906 -0.347656 12.796875 -1.046875 C 12.210938 -1.753906 11.921875 -2.570312 11.921875 -3.5 L 11.921875 -66.09375 C 11.921875 -72.875 12.941406 -78.335938 14.984375 -82.484375 C 17.035156 -86.628906 19.640625 -89.8125 22.796875 -92.03125 C 25.953125 -94.257812 29.3125 -95.753906 32.875 -96.515625 C 36.4375 -97.273438 39.675781 -97.65625 42.59375 -97.65625 L 55.046875 -97.65625 C 58.085938 -97.65625 61.359375 -97.273438 64.859375 -96.515625 C 68.367188 -95.753906 71.703125 -94.257812 74.859375 -92.03125 C 78.015625 -89.8125 80.613281 -86.628906 82.65625 -82.484375 C 84.707031 -78.335938 85.734375 -72.875 85.734375 -66.09375 Z M 85.734375 -3.5 "/></g></g></g><g clip-path="url(#c8f8fbeada)"><g fill="#d96a42" fill-opacity="1"><g transform="translate(686.768627, 131.755085)"><g><path d="M 80.8125 -2.28125 C 80.8125 -0.757812 80.171875 0 78.890625 0 L 66.265625 0 C 64.742188 0 63.398438 -0.757812 62.234375 -2.28125 L 27.34375 -45.40625 L 27.34375 -3.5 C 27.34375 -2.570312 26.992188 -1.753906 26.296875 -1.046875 C 25.597656 -0.347656 24.78125 0 23.84375 0 L 15.421875 0 C 14.492188 0 13.675781 -0.347656 12.96875 -1.046875 C 12.269531 -1.753906 11.921875 -2.570312 11.921875 -3.5 L 11.921875 -128.328125 C 11.921875 -129.265625 12.269531 -130.082031 12.96875 -130.78125 C 13.675781 -131.476562 14.492188 -131.828125 15.421875 -131.828125 L 23.84375 -131.828125 C 24.78125 -131.828125 25.597656 -131.476562 26.296875 -130.78125 C 26.992188 -130.082031 27.34375 -129.265625 27.34375 -128.328125 L 27.34375 -55.40625 L 62.40625 -94.84375 C 63.34375 -95.894531 64.515625 -96.421875 65.921875 -96.421875 L 78.1875 -96.421875 C 79.9375 -96.421875 80.8125 -95.78125 80.8125 -94.5 C 80.8125 -93.789062 80.519531 -93.144531 79.9375 -92.5625 L 41.375 -50.84375 L 80.296875 -3.859375 C 80.640625 -3.503906 80.8125 -2.976562 80.8125 -2.28125 Z M 80.8125 -2.28125 "/></g></g></g></g><g fill="#d96a42" fill-opacity="1"><g transform="translate(773.711187, 131.755085)"><g><path d="M 72.9375 -24.1875 C 72.9375 -15.3125 69.925781 -8.851562 63.90625 -4.8125 C 57.882812 -0.78125 49.960938 1.234375 40.140625 1.234375 C 38.035156 1.234375 35.347656 1.144531 32.078125 0.96875 C 28.804688 0.789062 25.445312 0.523438 22 0.171875 C 18.550781 -0.171875 15.367188 -0.695312 12.453125 -1.40625 C 9.992188 -1.988281 8.765625 -3.15625 8.765625 -4.90625 L 8.765625 -11.046875 C 8.765625 -12.796875 9.816406 -13.671875 11.921875 -13.671875 C 12.148438 -13.671875 12.296875 -13.671875 12.359375 -13.671875 C 12.421875 -13.671875 12.507812 -13.671875 12.625 -13.671875 C 15.425781 -13.328125 18.578125 -13.003906 22.078125 -12.703125 C 25.585938 -12.410156 28.945312 -12.175781 32.15625 -12 C 35.375 -11.832031 38.035156 -11.75 40.140625 -11.75 C 45.867188 -11.75 50.191406 -12.65625 53.109375 -14.46875 C 56.035156 -16.28125 57.5 -19.519531 57.5 -24.1875 C 57.5 -26.875 56.5625 -29.238281 54.6875 -31.28125 C 52.820312 -33.332031 49.378906 -35.820312 44.359375 -38.75 L 26.640625 -49.265625 C 21.265625 -52.535156 16.941406 -56.15625 13.671875 -60.125 C 10.398438 -64.101562 8.765625 -68.835938 8.765625 -74.328125 C 8.765625 -80.410156 10.164062 -85.144531 12.96875 -88.53125 C 15.78125 -91.914062 19.582031 -94.28125 24.375 -95.625 C 29.164062 -96.976562 34.539062 -97.65625 40.5 -97.65625 C 45.40625 -97.65625 50.164062 -97.445312 54.78125 -97.03125 C 59.394531 -96.625 63.75 -96.070312 67.84375 -95.375 C 70.0625 -95.019531 71.171875 -93.847656 71.171875 -91.859375 L 71.171875 -86.078125 C 71.171875 -84.085938 70.179688 -83.09375 68.203125 -83.09375 C 68.078125 -83.09375 67.984375 -83.09375 67.921875 -83.09375 C 67.867188 -83.09375 67.785156 -83.09375 67.671875 -83.09375 C 64.628906 -83.332031 60.566406 -83.625 55.484375 -83.96875 C 50.398438 -84.320312 45.40625 -84.5 40.5 -84.5 C 35.59375 -84.5 31.644531 -83.914062 28.65625 -82.75 C 25.675781 -81.582031 24.1875 -78.773438 24.1875 -74.328125 C 24.1875 -71.753906 25.207031 -69.472656 27.25 -67.484375 C 29.300781 -65.503906 32.316406 -63.347656 36.296875 -61.015625 L 53.640625 -50.671875 C 60.890625 -46.335938 65.914062 -42.125 68.71875 -38.03125 C 71.53125 -33.945312 72.9375 -29.332031 72.9375 -24.1875 Z M 72.9375 -24.1875 "/></g></g></g><g fill="#d96a42" fill-opacity="1"><g transform="translate(855.395103, 131.755085)"><g><path d="M 26.296875 -3.6875 C 26.296875 -2.75 25.972656 -1.925781 25.328125 -1.21875 C 24.691406 -0.519531 23.90625 -0.171875 22.96875 -0.171875 L 14.546875 -0.171875 C 13.734375 -0.171875 12.972656 -0.519531 12.265625 -1.21875 C 11.566406 -1.925781 11.21875 -2.75 11.21875 -3.6875 L 11.21875 -19.984375 C 11.21875 -20.921875 11.539062 -21.707031 12.1875 -22.34375 C 12.832031 -22.988281 13.617188 -23.3125 14.546875 -23.3125 L 22.96875 -23.3125 C 23.90625 -23.3125 24.691406 -22.988281 25.328125 -22.34375 C 25.972656 -21.707031 26.296875 -20.921875 26.296875 -19.984375 Z M 26.296875 -3.6875 "/></g></g></g><g clip-path="url(#3d60b35faf)"><g fill="#d96a42" fill-opacity="1"><g transform="translate(892.906632, 131.755085)"><g><path d="M 29.625 -115.359375 C 29.625 -114.421875 29.273438 -113.597656 28.578125 -112.890625 C 27.878906 -112.191406 27.0625 -111.84375 26.125 -111.84375 L 17.1875 -111.84375 C 16.25 -111.84375 15.425781 -112.191406 14.71875 -112.890625 C 14.019531 -113.597656 13.671875 -114.421875 13.671875 -115.359375 L 13.671875 -129.375 C 13.671875 -130.3125 14.019531 -131.128906 14.71875 -131.828125 C 15.425781 -132.535156 16.25 -132.890625 17.1875 -132.890625 L 26.125 -132.890625 C 27.0625 -132.890625 27.878906 -132.535156 28.578125 -131.828125 C 29.273438 -131.128906 29.625 -130.3125 29.625 -129.375 Z M 29.28125 -3.5 C 29.28125 -2.570312 28.925781 -1.753906 28.21875 -1.046875 C 27.519531 -0.347656 26.703125 0 25.765625 0 L 17.359375 0 C 16.421875 0 15.597656 -0.347656 14.890625 -1.046875 C 14.191406 -1.753906 13.84375 -2.570312 13.84375 -3.5 L 13.84375 -92.921875 C 13.84375 -93.847656 14.191406 -94.660156 14.890625 -95.359375 C 15.597656 -96.066406 16.421875 -96.421875 17.359375 -96.421875 L 25.765625 -96.421875 C 26.703125 -96.421875 27.519531 -96.066406 28.21875 -95.359375 C 28.925781 -94.660156 29.28125 -93.847656 29.28125 -92.921875 Z M 29.28125 -3.5 "/></g></g></g></g><g fill="#d96a42" fill-opacity="1"><g transform="translate(936.202635, 131.755085)"><g><path d="M 86.78125 -41.546875 C 86.78125 -28.691406 83.476562 -18.347656 76.875 -10.515625 C 70.269531 -2.679688 60.539062 1.234375 47.6875 1.234375 C 34.832031 1.234375 25.128906 -2.679688 18.578125 -10.515625 C 12.035156 -18.347656 8.765625 -28.691406 8.765625 -41.546875 L 8.765625 -54.875 C 8.765625 -67.726562 12.035156 -78.070312 18.578125 -85.90625 C 25.128906 -93.738281 34.832031 -97.65625 47.6875 -97.65625 C 60.539062 -97.65625 70.269531 -93.738281 76.875 -85.90625 C 83.476562 -78.070312 86.78125 -67.726562 86.78125 -54.875 Z M 71.359375 -41.546875 L 71.359375 -54.875 C 71.359375 -63.875 69.484375 -71.003906 65.734375 -76.265625 C 61.992188 -81.523438 55.976562 -84.15625 47.6875 -84.15625 C 39.5 -84.15625 33.535156 -81.523438 29.796875 -76.265625 C 26.054688 -71.003906 24.1875 -63.875 24.1875 -54.875 L 24.1875 -41.546875 C 24.1875 -32.660156 26.054688 -25.554688 29.796875 -20.234375 C 33.535156 -14.921875 39.5 -12.265625 47.6875 -12.265625 C 55.863281 -12.265625 61.851562 -14.894531 65.65625 -20.15625 C 69.457031 -25.414062 71.359375 -32.546875 71.359375 -41.546875 Z M 71.359375 -41.546875 "/></g></g></g></g></g></g></svg>